<svg width="41" height="41" viewBox="0 0 41 41" fill="none" xmlns="http://www.w3.org/2000/svg">
<g id="Group 36694">
<path id="Rectangle 5051" d="M0 16C0 7.16344 7.16344 0 16 0H25C33.8366 0 41 7.16344 41 16V25C41 33.8366 33.8366 41 25 41H16C7.16344 41 0 33.8366 0 25V16Z" fill="#1A7D8B"/>
<path id="Vector" d="M16.7972 11C16.9015 10.9994 17.0049 11.0184 17.1015 11.0557C17.1981 11.093 17.2859 11.148 17.36 11.2175L23.8357 17.3439C24.2048 17.6922 24.4976 18.106 24.6974 18.5615C24.8972 19.017 25 19.5053 25 19.9985C25 20.4916 24.8972 20.98 24.6974 21.4355C24.4976 21.891 24.2048 22.3047 23.8357 22.653L17.36 28.7795C17.2861 28.8494 17.1983 28.9048 17.1018 28.9427C17.0052 28.9805 16.9017 29 16.7972 29C16.6927 29 16.5892 28.9805 16.4927 28.9427C16.3961 28.9048 16.3084 28.8494 16.2345 28.7795C16.1606 28.7096 16.1019 28.6265 16.0619 28.5352C16.0219 28.4438 16.0014 28.3459 16.0014 28.2471C16.0014 28.1482 16.0219 28.0503 16.0619 27.9589C16.1019 27.8676 16.1606 27.7846 16.2345 27.7147L22.7102 21.5882C23.1555 21.1664 23.4056 20.5946 23.4056 19.9985C23.4056 19.4023 23.1555 18.8305 22.7102 18.4087L16.2345 12.2823C16.1602 12.2126 16.1012 12.1296 16.061 12.0383C16.0207 11.9469 16 11.8489 16 11.7499C16 11.6509 16.0207 11.5529 16.061 11.4615C16.1012 11.3701 16.1602 11.2872 16.2345 11.2175C16.3085 11.148 16.3964 11.093 16.4929 11.0557C16.5895 11.0184 16.6929 10.9994 16.7972 11Z" fill="white"/>
</g>
</svg>
