<svg width="41" height="41" viewBox="0 0 41 41" fill="none" xmlns="http://www.w3.org/2000/svg">
<g id="Group 36695">
<path id="Rectangle 5051" d="M41 25C41 33.8366 33.8366 41 25 41L16 41C7.16344 41 -6.26248e-07 33.8366 -1.39876e-06 25L-2.18557e-06 16C-2.95809e-06 7.16345 7.16344 2.95809e-06 16 2.18557e-06L25 1.39876e-06C33.8366 6.26248e-07 41 7.16344 41 16L41 25Z" fill="#1A7D8B"/>
<path id="Vector" d="M24.2028 29C24.0985 29.0006 23.9951 28.9816 23.8985 28.9443C23.8019 28.907 23.7141 28.852 23.64 28.7825L17.1643 22.6561C16.7952 22.3078 16.5024 21.894 16.3026 21.4385C16.1028 20.983 16 20.4947 16 20.0015C16 19.5084 16.1028 19.02 16.3026 18.5645C16.5024 18.109 16.7952 17.6953 17.1643 17.347L23.64 11.2205C23.7139 11.1506 23.8017 11.0952 23.8982 11.0573C23.9948 11.0195 24.0983 11 24.2028 11C24.3073 11 24.4108 11.0195 24.5073 11.0573C24.6039 11.0952 24.6916 11.1506 24.7655 11.2205C24.8394 11.2904 24.8981 11.3734 24.9381 11.4648C24.9781 11.5562 24.9986 11.6541 24.9986 11.7529C24.9986 11.8518 24.9781 11.9497 24.9381 12.0411C24.8981 12.1324 24.8394 12.2154 24.7655 12.2853L18.2898 18.4118C17.8445 18.8336 17.5944 19.4054 17.5944 20.0015C17.5944 20.5977 17.8445 21.1695 18.2898 21.5913L24.7655 27.7177C24.8398 27.7874 24.8988 27.8704 24.939 27.9617C24.9793 28.0531 25 28.1511 25 28.2501C25 28.3491 24.9793 28.4471 24.939 28.5385C24.8988 28.6299 24.8398 28.7128 24.7655 28.7825C24.6915 28.852 24.6036 28.907 24.5071 28.9443C24.4105 28.9816 24.3071 29.0006 24.2028 29Z" fill="#F7F7F7"/>
</g>
</svg>
