<svg width="41" height="41" viewBox="0 0 41 41" fill="none" xmlns="http://www.w3.org/2000/svg">
<g id="Group 36695">
<path id="Rectangle 5051" d="M41 25C41 33.8366 33.8366 41 25 41L16 41C7.16344 41 -6.26248e-07 33.8366 -1.39876e-06 25L-2.18557e-06 16C-2.95809e-06 7.16345 7.16344 2.95809e-06 16 2.18557e-06L25 1.39876e-06C33.8366 6.26248e-07 41 7.16344 41 16L41 25Z" fill="white"/>
<path id="Vector" d="M24.2028 30C24.0985 30.0006 23.9951 29.9816 23.8985 29.9443C23.8019 29.907 23.7141 29.852 23.64 29.7825L17.1643 23.6561C16.7952 23.3078 16.5024 22.894 16.3026 22.4385C16.1028 21.983 16 21.4947 16 21.0015C16 20.5084 16.1028 20.02 16.3026 19.5645C16.5024 19.109 16.7952 18.6953 17.1643 18.347L23.64 12.2205C23.7139 12.1506 23.8017 12.0952 23.8982 12.0573C23.9948 12.0195 24.0983 12 24.2028 12C24.3073 12 24.4108 12.0195 24.5073 12.0573C24.6039 12.0952 24.6916 12.1506 24.7655 12.2205C24.8394 12.2904 24.8981 12.3734 24.9381 12.4648C24.9781 12.5562 24.9986 12.6541 24.9986 12.7529C24.9986 12.8518 24.9781 12.9497 24.9381 13.0411C24.8981 13.1324 24.8394 13.2154 24.7655 13.2853L18.2898 19.4118C17.8445 19.8336 17.5944 20.4054 17.5944 21.0015C17.5944 21.5977 17.8445 22.1695 18.2898 22.5913L24.7655 28.7177C24.8398 28.7874 24.8988 28.8704 24.939 28.9617C24.9793 29.0531 25 29.1511 25 29.2501C25 29.3491 24.9793 29.4471 24.939 29.5385C24.8988 29.6299 24.8398 29.7128 24.7655 29.7825C24.6915 29.852 24.6036 29.907 24.5071 29.9443C24.4105 29.9816 24.3071 30.0006 24.2028 30Z" fill="#008699"/>
</g>
</svg>
