<svg width="58" height="62" viewBox="0 0 58 62" fill="none" xmlns="http://www.w3.org/2000/svg">
<g id="Group 36665">
<g id="Group">
<g id="Group 36707">
<path id="Vector" fill-rule="evenodd" clip-rule="evenodd" d="M28.9048 0.000758229C37.0351 0.0418149 45.3965 1.87727 51.0706 7.72042C56.6867 13.504 58.036 21.8874 57.9993 29.9624C57.9628 37.992 56.2597 46.068 50.8692 52.0024C45.2399 58.1996 37.2587 62.1998 28.9048 61.9923C20.7194 61.789 13.4933 57.0316 8.00129 50.9378C2.80216 45.169 0.304162 37.7358 0.038171 29.9624C-0.238986 21.8627 0.900988 13.3222 6.51477 7.49542C12.1996 1.59493 20.7259 -0.0405435 28.9048 0.000758229Z" fill="#DEE9EB"/>
<path id="Vector_2" d="M44.0999 32.4499V31.15C44.4587 31.15 44.7499 30.8589 44.7499 30.5V26.6C44.7499 26.241 44.4587 25.95 44.0999 25.95H40.5899L40.4639 25.4617C40.1766 24.3449 39.73 23.2753 39.1378 22.2858L38.8778 21.8509L41.3699 19.3545C41.6208 19.1031 41.6208 18.6959 41.3699 18.4445L38.6094 15.68C38.4868 15.563 38.3238 15.4977 38.1543 15.4977C37.9848 15.4977 37.8218 15.563 37.6991 15.68L35.2025 18.1766L34.7678 17.9166C33.777 17.3242 32.706 16.8774 31.5879 16.59L31.0999 16.463V12.95C31.0999 12.591 30.8089 12.3 30.4499 12.3H26.5499C26.1909 12.3 25.8999 12.591 25.8999 12.95V16.46L25.4116 16.5862C24.2948 16.8734 23.2251 17.3197 22.2353 17.9113L21.8004 18.1716L19.3044 15.68C19.1816 15.5621 19.018 15.4963 18.8478 15.4963C18.6775 15.4963 18.5139 15.5621 18.3911 15.68L15.6299 18.4405C15.5698 18.5004 15.5221 18.5717 15.4896 18.6501C15.457 18.7285 15.4402 18.8126 15.4402 18.8975C15.4402 18.9824 15.457 19.0665 15.4896 19.1449C15.5221 19.2234 15.5698 19.2946 15.6299 19.3546L18.1266 21.8509L17.8666 22.2859C17.2745 23.2754 16.8279 24.345 16.5407 25.4618L16.4132 25.95H12.8999C12.541 25.95 12.2499 26.241 12.2499 26.6V30.5C12.2499 30.8589 12.541 31.15 12.8999 31.15V32.4499C11.8232 32.4499 10.95 31.5767 10.95 30.5V26.6C10.95 25.5232 11.8232 24.65 12.8999 24.65H15.4149C15.6829 23.7512 16.0455 22.8835 16.4965 22.0612L14.709 20.2737C14.3434 19.9088 14.138 19.4137 14.138 18.8975C14.138 18.3813 14.3434 17.8861 14.709 17.5216L17.4715 14.7591C18.2411 14.0225 19.4545 14.0225 20.2241 14.7591L22.0111 16.5458C22.8335 16.0953 23.7013 15.7331 24.5999 15.4655V12.95C24.5999 11.8732 25.4731 11 26.5499 11H30.4499C31.5267 11 32.3999 11.8732 32.3999 12.95V15.4655C33.2986 15.7334 34.1664 16.0958 34.9887 16.5466L36.7762 14.7591C37.5461 14.0225 38.7592 14.0225 39.5291 14.7591L42.2911 17.5208C42.4719 17.7014 42.6154 17.9158 42.7133 18.1519C42.8112 18.388 42.8616 18.6411 42.8616 18.8967C42.8616 19.1523 42.8113 19.4055 42.7134 19.6416C42.6155 19.8778 42.472 20.0923 42.2911 20.2729L40.5036 22.0604C40.9542 22.8831 41.3167 23.7511 41.585 24.65H44.0999C45.1767 24.65 46.0499 25.5232 46.0499 26.6V30.5C46.0499 31.5767 45.1767 32.4499 44.0999 32.4499Z" fill="#006A78"/>
<path id="Vector_3" d="M37.6 28.5502H36.3C36.3 24.2424 32.8077 20.7502 28.5 20.7502C24.1923 20.7502 20.7 24.2424 20.7 28.5502H19.4C19.4 23.5244 23.4742 19.4502 28.5 19.4502C33.5255 19.4502 37.6 23.5244 37.6 28.5502Z" fill="#006A78"/>
<path id="Vector_4" d="M28.5 33.7502C26.3461 33.7502 24.6 32.0038 24.6 29.8502C24.6 27.6963 26.3461 25.9502 28.5 25.9502C30.6541 25.9502 32.4 27.6963 32.4 29.8502C32.3977 32.0033 30.6531 33.7479 28.5 33.7502ZM28.5 27.2502C27.0642 27.2502 25.9 28.4143 25.9 29.8502C25.9 31.286 27.0642 32.4502 28.5 32.4502C29.9359 32.4502 31.1 31.286 31.1 29.8502C31.1 28.4143 29.9359 27.2502 28.5 27.2502ZM39.55 36.3502C37.3961 36.3502 35.65 34.6038 35.65 32.4502C35.65 30.2963 37.3961 28.5502 39.55 28.5502C41.7039 28.5502 43.45 30.2963 43.45 32.4502C43.4477 34.6033 41.7031 36.3479 39.55 36.3502ZM39.55 29.8502C38.1141 29.8502 36.95 31.0143 36.95 32.4502C36.95 33.886 38.1141 35.0502 39.55 35.0502C40.9858 35.0502 42.15 33.886 42.15 32.4502C42.15 31.0143 40.9858 29.8502 39.55 29.8502ZM17.45 36.3502C15.2961 36.3502 13.55 34.6038 13.55 32.4502C13.55 30.2963 15.2961 28.5502 17.45 28.5502C19.6041 28.5502 21.35 30.2963 21.35 32.4502C21.3478 34.6033 19.6032 36.3479 17.45 36.3502ZM17.45 29.8502C16.0142 29.8502 14.85 31.0143 14.85 32.4502C14.85 33.886 16.0142 35.0502 17.45 35.0502C18.8859 35.0502 20.05 33.886 20.05 32.4502C20.05 31.0143 18.8859 29.8502 17.45 29.8502Z" fill="#006A78"/>
<path id="Vector_5" d="M45.4426 38.0176C44.4739 37.3517 43.3254 36.9967 42.1499 36.9999H36.9499C36.6337 37.0028 36.3182 37.0314 36.0067 37.0855C35.5906 36.435 35.0496 35.8736 34.4149 35.4338C34.3198 35.3619 34.2197 35.2968 34.1153 35.2391C33.206 34.6885 32.1629 34.3983 31.1 34.3999H25.9C24.9221 34.3965 23.9592 34.641 23.1015 35.1107C22.2437 35.5803 21.519 36.2597 20.9951 37.0855C20.6829 37.0314 20.3668 37.0028 20.05 36.9999H14.85C13.6753 36.9967 12.5274 37.3512 11.5591 38.0163C10.771 38.5526 10.1259 39.2732 9.67991 40.1157C9.2339 40.9581 9.00049 41.8967 9 42.8499V45.4499C9.00227 47.2247 10.0349 48.8365 11.647 49.58C12.242 49.8602 12.8923 50.0037 13.55 49.9999H20.05V48.6999H14.2V41.5499H12.9V48.6346C12.6553 48.5855 12.4176 48.5066 12.1921 48.3995C11.6283 48.1396 11.1505 47.7237 10.8152 47.2011C10.48 46.6785 10.3012 46.0708 10.3 45.4499V42.8499C10.3008 42.1081 10.4827 41.3777 10.8301 40.7223C11.1774 40.0668 11.6795 39.5061 12.2929 39.0888C13.0454 38.5724 13.9373 38.2973 14.85 38.2999H20.05C20.1645 38.2999 20.2749 38.3121 20.3867 38.3198C20.1667 38.9396 20.0529 39.5922 20.05 40.2499V46.7499C20.0523 48.544 21.5061 49.9976 23.3 49.9999H25.25V39.5999H23.95V48.6999H23.3C22.2232 48.6999 21.35 47.8267 21.35 46.7499V40.2499C21.35 37.7368 23.3873 35.6999 25.9 35.6999H31.1C31.9362 35.7005 32.7561 35.932 33.4692 36.3688C33.5351 36.4048 33.5985 36.4453 33.6588 36.4901C34.2678 36.9071 34.7677 37.4644 35.1162 38.1151C35.4665 38.7722 35.6498 39.5053 35.6499 40.2499V46.7499C35.6499 47.8267 34.7767 48.6999 33.6999 48.6999H33.0499V39.5999H31.75V49.9999H33.6999C35.4941 49.9976 36.9477 48.544 36.9499 46.7499V40.2499C36.9469 39.5922 36.8333 38.9397 36.6138 38.3198C36.7258 38.3121 36.8362 38.2999 36.9499 38.2999H42.1499C43.0633 38.2975 43.9558 38.573 44.7088 39.0901C45.3216 39.5074 45.8232 40.0681 46.1702 40.7233C46.5172 41.3785 46.699 42.1085 46.6999 42.8499V45.4499C46.6988 46.0729 46.5189 46.6825 46.1815 47.2062C45.8442 47.73 45.3636 48.1459 44.7969 48.4046C44.5749 48.5097 44.3408 48.5869 44.0999 48.6347V41.5499H42.7999V48.6999H36.9499V49.9999H43.4499C44.1036 50.004 44.75 49.8623 45.3421 49.585C46.9594 48.8439 47.9973 47.229 47.9999 45.4499V42.8499C47.9994 41.8971 47.7662 40.9588 47.3205 40.1166C46.8748 39.2744 46.2301 38.5539 45.4426 38.0176Z" fill="#006A78"/>
<path id="Vector_6" d="M25.8999 48.6997H31.0999V49.9997H25.8999V48.6997Z" fill="#006A78"/>
</g>
</g>
</g>
</svg>
