<svg width="58" height="62" viewBox="0 0 58 62" fill="none" xmlns="http://www.w3.org/2000/svg">
<g id="Group 36706">
<path id="Vector" fill-rule="evenodd" clip-rule="evenodd" d="M28.9048 0.000758229C37.0351 0.0418149 45.3965 1.87727 51.0706 7.72042C56.6867 13.504 58.036 21.8874 57.9993 29.9624C57.9628 37.992 56.2597 46.068 50.8692 52.0024C45.2399 58.1996 37.2587 62.1998 28.9048 61.9923C20.7194 61.789 13.4933 57.0316 8.00129 50.9378C2.80216 45.169 0.304162 37.7358 0.038171 29.9624C-0.238986 21.8627 0.900988 13.3222 6.51477 7.49542C12.1996 1.59493 20.7259 -0.0405435 28.9048 0.000758229Z" fill="#DEE9EB"/>
<path id="Vector_2" d="M47.2877 30.5825C48.1893 28.7989 47.816 26.6817 46.3587 25.3139L44.2437 23.3288C43.7558 22.871 43.4576 22.3543 43.3049 21.7027L42.6432 18.8786C42.1875 16.9327 40.5405 15.5507 38.545 15.4397L35.6488 15.2786C34.9807 15.2414 34.4201 15.0374 33.8845 14.6365L31.5623 12.8982C29.9625 11.7007 27.8124 11.7005 26.2124 12.8982L23.8903 14.6364C23.3546 15.0374 22.7939 15.2414 22.1259 15.2786L19.2298 15.4397C17.2343 15.5507 15.5873 16.9327 15.1315 18.8786L14.4698 21.7028C14.3172 22.3543 14.0189 22.871 13.5311 23.3288L11.416 25.3139C9.95872 26.6816 9.5854 28.7989 10.487 30.5825L11.7956 33.1712C12.0975 33.7684 12.2011 34.3559 12.1216 35.0203L11.7773 37.9005C11.5402 39.8849 12.6151 41.7467 14.4523 42.5336L17.1187 43.6756C17.7337 43.939 18.1908 44.3224 18.5571 44.8823L20.1447 47.31C21.2385 48.9826 23.2587 49.718 25.1719 49.1397L27.9485 48.3006C28.5891 48.107 29.1856 48.1071 29.826 48.3006L32.6026 49.1397C33.0274 49.2687 33.4689 49.3345 33.9128 49.3348C35.3869 49.3347 36.7849 48.602 37.6298 47.31L39.2176 44.8823C39.5838 44.3224 40.0408 43.9389 40.6558 43.6755L43.3223 42.5335C45.1594 41.7467 46.2344 39.8848 45.9972 37.9004L45.6529 35.0201C45.5735 34.3559 45.6771 33.7683 45.979 33.1712L47.2877 30.5825ZM44.8914 32.6215C44.4819 33.4317 44.3352 34.2637 44.4429 35.165L44.7872 38.0452C44.9624 39.5103 44.199 40.8324 42.8427 41.4133L40.1762 42.5553C39.3417 42.9127 38.6946 43.4557 38.1977 44.2154L36.61 46.6431C35.8024 47.878 34.3677 48.4 32.9553 47.9732L30.1787 47.1341C29.7442 47.0027 29.3159 46.9371 28.8874 46.9371C28.459 46.9371 28.0304 47.0027 27.596 47.1341L24.8194 47.9732C23.407 48.4 21.9724 47.878 21.1647 46.6431L19.5771 44.2154C19.0802 43.4556 18.4329 42.9126 17.5985 42.5553L14.9321 41.4133C13.5756 40.8324 12.8123 39.5103 12.9875 38.0452L13.3318 35.165C13.4395 34.2636 13.2928 33.4317 12.8833 32.6214L11.5746 30.0327C10.909 28.7158 11.174 27.2125 12.25 26.2026L14.3651 24.2175C15.027 23.5963 15.4493 22.8646 15.6564 21.9807L16.3181 19.1565C16.6546 17.7198 17.8241 16.7385 19.2974 16.6566L22.1935 16.4955C23.0999 16.4451 23.8938 16.1561 24.6205 15.6122L26.9427 13.8739C28.124 12.9897 29.6507 12.9896 30.8319 13.8739L33.1541 15.6122C33.8809 16.1561 34.6748 16.4451 35.5811 16.4955L38.4772 16.6566C39.9506 16.7386 41.12 17.7198 41.4566 19.1566L42.1183 21.9807C42.3253 22.8647 42.7477 23.5963 43.4096 24.2175L45.5247 26.2026C46.6006 27.2124 46.8656 28.7158 46.2 30.0327L44.8914 32.6215ZM28.8874 18.2089C22.0183 18.2089 16.4298 23.7973 16.4298 30.6665C16.4298 37.5356 22.0183 43.1241 28.8874 43.1241C35.7566 43.1241 41.345 37.5356 41.345 30.6665C41.345 23.7973 35.7566 18.2089 28.8874 18.2089ZM28.8874 41.9053C22.6903 41.9053 17.6486 36.8636 17.6486 30.6665C17.6486 24.4694 22.6903 19.4276 28.8874 19.4276C35.0845 19.4276 40.1263 24.4694 40.1263 30.6665C40.1263 36.8636 35.0845 41.9053 28.8874 41.9053ZM34.0742 25.0198H34.0651C33.4562 25.0222 32.8852 25.2615 32.4573 25.6938L27.404 30.7974L25.317 28.7104C24.886 28.2794 24.3129 28.042 23.7032 28.042C23.0935 28.042 22.5205 28.2794 22.0894 28.7105C21.1996 29.6003 21.1996 31.0482 22.0894 31.9379L25.796 35.6445C26.2409 36.0894 26.8253 36.3119 27.4098 36.3119C27.9942 36.3119 28.5787 36.0894 29.0236 35.6445C30.4289 34.2392 31.8469 32.8009 33.2182 31.4101C34.0418 30.5739 34.8665 29.7388 35.6922 28.9047C36.576 28.0129 36.5713 26.5677 35.6819 25.6832C35.2516 25.2551 34.681 25.0198 34.0742 25.0198ZM34.8266 28.0468C34.0001 28.8816 33.1747 29.7175 32.3502 30.5543C30.9805 31.9437 29.5641 33.3804 28.1618 34.7826C27.7471 35.1973 27.0723 35.1973 26.6578 34.7826L22.9513 31.076C22.5367 30.6614 22.5367 29.9867 22.9513 29.572C23.0498 29.473 23.167 29.3945 23.2961 29.341C23.4252 29.2876 23.5635 29.2603 23.7032 29.2606C23.9873 29.2606 24.2544 29.3712 24.4552 29.572L26.9752 32.0921C27.0895 32.2064 27.2445 32.2706 27.4061 32.2706H27.4076C27.4879 32.2704 27.5674 32.2543 27.6414 32.2233C27.7155 32.1923 27.7827 32.147 27.8392 32.09L33.3234 26.5511C33.4209 26.4522 33.5371 26.3736 33.6652 26.3199C33.7934 26.2662 33.9309 26.2385 34.0699 26.2384H34.0741C34.3566 26.2384 34.6223 26.348 34.8226 26.5472C35.2363 26.9588 35.2381 27.6314 34.8266 28.0468Z" fill="#006A78"/>
</g>
</svg>
