<svg width="58" height="62" viewBox="0 0 58 62" fill="none" xmlns="http://www.w3.org/2000/svg">
<g id="Group">
<g id="Group 36705">
<path id="Vector" fill-rule="evenodd" clip-rule="evenodd" d="M28.9048 0.000758229C37.0351 0.0418149 45.3965 1.87727 51.0706 7.72042C56.6867 13.504 58.036 21.8874 57.9993 29.9624C57.9628 37.992 56.2597 46.068 50.8692 52.0024C45.2399 58.1996 37.2587 62.1998 28.9048 61.9923C20.7194 61.789 13.4933 57.0316 8.00129 50.9378C2.80216 45.169 0.304162 37.7358 0.038171 29.9624C-0.238986 21.8627 0.900988 13.3222 6.51477 7.49542C12.1996 1.59493 20.7259 -0.0405435 28.9048 0.000758229Z" fill="#DEE9EB"/>
<path id="Vector_2" d="M45.2368 16.1554L43.598 14.7123L45.2368 13.2696C45.4916 13.0449 45.5788 12.6947 45.4592 12.3769C45.3389 12.0589 45.042 11.8535 44.7022 11.8535H37.9207V11.5621C37.9207 11.4883 37.9061 11.4152 37.8779 11.347C37.8496 11.2788 37.8082 11.2168 37.756 11.1646C37.7038 11.1124 37.6419 11.071 37.5737 11.0428C37.5055 11.0145 37.4324 11 37.3586 11C37.2848 11 37.2117 11.0145 37.1435 11.0428C37.0753 11.071 37.0133 11.1124 36.9611 11.1646C36.909 11.2168 36.8675 11.2788 36.8393 11.347C36.8111 11.4152 36.7965 11.4883 36.7965 11.5621V19.1424L32.1804 21.649C32.1544 21.4431 32.0927 21.2432 31.9978 21.0586L31.3474 19.7887C30.901 18.9169 29.8284 18.5713 28.9569 19.0175L28.454 19.275C28.0315 19.4915 27.7187 19.8589 27.573 20.3107C27.5008 20.5326 27.4732 20.7666 27.4921 20.9992C27.5109 21.2318 27.5757 21.4584 27.6828 21.6657L28.3332 22.9358C28.4794 23.2215 28.7007 23.462 28.9733 23.6313C28.628 24.0962 28.4642 24.668 28.2957 25.2619L28.1746 25.6908C28.1545 25.7618 28.1485 25.8361 28.1572 25.9095C28.1658 25.9828 28.1888 26.0537 28.2248 26.1181C28.2608 26.1825 28.3092 26.2392 28.3672 26.285C28.4251 26.3307 28.4915 26.3645 28.5626 26.3846C28.6135 26.3992 28.665 26.4059 28.7156 26.4059C28.838 26.4058 28.957 26.3658 29.0546 26.2919C29.1521 26.218 29.2229 26.1143 29.2562 25.9966L29.3774 25.5685C29.6238 24.6998 29.775 24.2346 30.2566 23.9731L31.12 23.504L31.2266 23.4496C31.262 23.4315 31.295 23.4109 31.3286 23.3908L37.4824 20.0492C37.4434 20.8183 37.0295 21.5451 36.3477 21.9592L32.346 24.3905C32.3413 24.3932 32.3366 24.3958 32.3323 24.3988L31.0866 25.1553C30.9593 25.2329 30.8679 25.3577 30.8326 25.5026C30.7973 25.6474 30.8209 25.8004 30.8983 25.9278C31.0502 26.178 31.3661 26.2669 31.6239 26.1414L30.6789 28.9982L29.988 29.2814L28.1096 30.0513L28.6509 28.1377C28.6914 27.9942 28.6733 27.8405 28.6005 27.7104C28.5278 27.5803 28.4063 27.4843 28.2629 27.4437C27.9639 27.3588 27.6535 27.533 27.5689 27.8317L26.7137 30.8562C26.7023 30.896 26.6955 30.9371 26.6935 30.9785L26.4697 35.0899C26.4629 35.2467 26.4963 35.5431 26.4237 35.6961L23.9379 40.9258H22.1315C21.0732 40.9258 20.2125 41.7866 20.2125 42.8446V44.467C19.9631 44.3528 19.692 44.2938 19.4178 44.2941H14.8303C13.7723 44.2941 12.9115 45.1546 12.9115 46.2129V48.2259H11.5621C11.413 48.2259 11.27 48.2851 11.1646 48.3905C11.0592 48.4959 11 48.6389 11 48.7879C11 48.937 11.0592 49.08 11.1646 49.1854C11.27 49.2908 11.413 49.35 11.5621 49.35H44.7016C44.8506 49.35 44.9936 49.2908 45.099 49.1854C45.2044 49.08 45.2636 48.937 45.2636 48.7879C45.2636 48.6389 45.2044 48.4959 45.099 48.3905C44.9936 48.2851 44.8506 48.2259 44.7016 48.2259H43.2398V33.7384C43.2398 32.6804 42.3791 31.8196 41.3211 31.8196H37.9207V22.0142C38.5438 21.1695 38.7748 20.0623 38.4854 19.0101C38.463 18.9285 38.4224 18.8529 38.3667 18.7892C38.3109 18.7254 38.2414 18.6751 38.1635 18.6421C38.0868 18.6095 38.0039 18.5943 37.9207 18.5976V17.5715H44.7019C45.042 17.5715 45.3389 17.3661 45.4589 17.0484C45.5788 16.7306 45.4916 16.3801 45.2368 16.1554ZM28.6429 20.656C28.669 20.5743 28.711 20.4987 28.7665 20.4334C28.822 20.3681 28.8899 20.3145 28.9663 20.2756L29.4693 20.0181C29.5609 19.971 29.6624 19.9464 29.7654 19.9464C30.0023 19.9464 30.2315 20.076 30.3468 20.3011L30.9974 21.5712C31.1493 21.8678 31.051 22.2275 30.781 22.4091L30.5978 22.5084L30.2113 22.7064C29.8915 22.8703 29.4977 22.7433 29.3338 22.4232L28.6831 21.1534C28.6439 21.0772 28.6201 20.9941 28.6133 20.9087C28.6064 20.8234 28.6165 20.7375 28.643 20.656L28.6429 20.656ZM27.5137 41.0988C27.3187 41.0097 27.1101 40.9541 26.8966 40.9343L27.5137 40.1148V41.0988ZM30.1824 36.5698C30.4527 36.2459 30.5273 35.8676 30.5876 35.5627C30.6028 35.4901 30.8802 33.9751 30.8802 33.9751C30.8802 33.9751 31.1427 34.1387 31.1702 34.1504C31.1797 34.1548 31.188 34.1616 31.194 34.1703C31.2001 34.1789 31.2038 34.189 31.2047 34.1995L31.5104 37.3077H29.6267L30.1824 36.5698ZM33.5062 33.4675L33.0316 37.305H32.6399L32.3236 34.0895C32.3038 33.8876 32.2326 33.6943 32.1166 33.5279C32.0007 33.3615 31.8439 33.2276 31.6614 33.1392L31.0961 32.7808L31.4727 30.6938C31.4727 30.6938 33.0591 32.5783 33.096 32.6263C33.4243 33.0532 33.5366 33.224 33.5062 33.4675ZM27.435 36.1876C27.5485 35.8459 27.6012 35.498 27.5924 35.1442L27.7966 31.3945L30.3963 30.3292L29.9238 32.9467C29.9223 32.9537 29.9208 32.961 29.92 32.968L29.529 35.1323C29.4781 35.3564 29.4337 35.6964 29.2938 35.8811L25.4957 40.9258H25.1826L27.435 36.1876ZM14.0357 46.2126C14.0357 45.7746 14.392 45.4182 14.8304 45.4182H19.4178C19.8561 45.4182 20.2128 45.7746 20.2128 46.2126V48.2259H14.0356L14.0357 46.2126ZM21.3366 46.2126V42.8446C21.3366 42.4063 21.6933 42.0499 22.1315 42.0499H26.719C27.1573 42.0499 27.5137 42.4063 27.5137 42.8447V48.2259H21.3369V46.2126H21.3366ZM42.1159 33.7384V48.2259H35.939V44.8559C35.939 44.782 35.9245 44.709 35.8962 44.6408C35.868 44.5726 35.8266 44.5106 35.7744 44.4584C35.7222 44.4062 35.6603 44.3648 35.5921 44.3366C35.5239 44.3083 35.4508 44.2938 35.377 44.2938C35.3031 44.2938 35.23 44.3083 35.1618 44.3365C35.0936 44.3647 35.0316 44.4061 34.9793 44.4583C34.9271 44.5105 34.8857 44.5725 34.8574 44.6407C34.8291 44.7089 34.8146 44.782 34.8146 44.8559V48.2259H28.6379V39.2262C28.6379 38.7882 28.9942 38.4318 29.4325 38.4318H34.02C34.4583 38.4318 34.8147 38.7882 34.8147 39.2262V42.0438C34.8147 42.1929 34.8739 42.3358 34.9793 42.4412C35.0847 42.5466 35.2276 42.6058 35.3767 42.6059C35.4505 42.6059 35.5236 42.5914 35.5918 42.5631C35.66 42.5349 35.722 42.4935 35.7742 42.4413C35.8264 42.3891 35.8678 42.3271 35.896 42.2589C35.9242 42.1907 35.9388 42.1176 35.9387 42.0438V33.7384C35.9387 33.3001 36.2954 32.9437 36.7337 32.9437H37.3528C37.3546 32.9437 37.3566 32.9441 37.3587 32.9441C37.3605 32.9441 37.3625 32.9438 37.3642 32.9438H41.3209C41.7592 32.9438 42.1159 33.3004 42.1159 33.7385V33.7384ZM36.7337 31.8196C35.6758 31.8196 34.8149 32.6804 34.8149 33.7384V37.4806C34.6094 37.3867 34.3887 37.3301 34.1633 37.3136L34.6218 33.6059C34.7119 32.8832 34.3432 32.4042 33.9869 31.9408C33.9492 31.8916 31.7644 29.2975 31.7644 29.2975L33.1047 25.2452L36.7967 23.0022V31.8196H36.7337ZM37.9207 16.4471V12.9779H43.8669L42.5862 14.1055C42.5 14.1814 42.431 14.2748 42.3837 14.3795C42.3363 14.4842 42.3118 14.5977 42.3118 14.7126C42.3118 14.945 42.4119 15.1661 42.5862 15.3198L43.8669 16.4474H37.9207V16.4471Z" fill="#005D69"/>
</g>
</g>
</svg>
