<svg width="29" height="29" viewBox="0 0 29 29" fill="none" xmlns="http://www.w3.org/2000/svg">
<g id="fi-rr-sign-out" clip-path="url(#clip0_1265_3945)">
<path id="Vector" d="M11.082 1.41599L6.39486 6.10311C6.17475 6.33101 6.05296 6.63624 6.05571 6.95306C6.05846 7.26988 6.18554 7.57294 6.40958 7.79698C6.63361 8.02101 6.93668 8.14809 7.2535 8.15085C7.57032 8.1536 7.87555 8.03181 8.10344 7.8117L12.7906 3.12457C12.9326 2.98532 13.0908 2.86362 13.2618 2.76207C13.2618 2.7802 13.2521 2.7947 13.2521 2.81282L13.2908 21.7643C13.2908 22.0848 13.4181 22.3921 13.6447 22.6187C13.8713 22.8453 14.1787 22.9727 14.4991 22.9727C14.8196 22.9727 15.127 22.8453 15.3536 22.6187C15.5802 22.3921 15.7075 22.0848 15.7075 21.7643L15.6688 2.82007C15.6688 2.78624 15.6519 2.75845 15.6495 2.72582C15.8539 2.833 16.0419 2.96891 16.2077 3.12941L20.8949 7.81653C21.0063 7.93194 21.1397 8.02399 21.2871 8.08732C21.4345 8.15065 21.5931 8.18398 21.7535 8.18538C21.9139 8.18677 22.073 8.1562 22.2215 8.09544C22.3701 8.03469 22.505 7.94496 22.6184 7.83151C22.7319 7.71805 22.8216 7.58314 22.8824 7.43464C22.9431 7.28614 22.9737 7.12703 22.9723 6.96659C22.9709 6.80615 22.9376 6.64759 22.8742 6.50017C22.8109 6.35275 22.7188 6.21941 22.6034 6.10795L17.9163 1.42082C17.0099 0.514711 15.7808 0.00568962 14.4991 0.00568962C13.2175 0.00568962 11.9884 0.514711 11.082 1.42082V1.41599Z" fill="#008699"/>
<path id="Vector_2" d="M26.5833 20.5417V22.9583C26.5833 23.9197 26.2014 24.8418 25.5216 25.5216C24.8418 26.2014 23.9197 26.5833 22.9583 26.5833H6.04167C5.08026 26.5833 4.15822 26.2014 3.4784 25.5216C2.79859 24.8418 2.41667 23.9197 2.41667 22.9583V20.5417C2.41667 20.2212 2.28936 19.9139 2.06275 19.6872C1.83615 19.4606 1.5288 19.3333 1.20833 19.3333C0.887863 19.3333 0.580519 19.4606 0.353913 19.6872C0.127306 19.9139 0 20.2212 0 20.5417L0 22.9583C0.00191866 24.5601 0.639066 26.0957 1.77168 27.2283C2.9043 28.3609 4.43991 28.9981 6.04167 29H22.9583C24.5601 28.9981 26.0957 28.3609 27.2283 27.2283C28.3609 26.0957 28.9981 24.5601 29 22.9583V20.5417C29 20.2212 28.8727 19.9139 28.6461 19.6872C28.4195 19.4606 28.1121 19.3333 27.7917 19.3333C27.4712 19.3333 27.1639 19.4606 26.9372 19.6872C26.7106 19.9139 26.5833 20.2212 26.5833 20.5417Z" fill="#008699"/>
</g>
<defs>
<clipPath id="clip0_1265_3945">
<rect width="29" height="29" fill="white" transform="matrix(0 -1 1 0 0 29)"/>
</clipPath>
</defs>
</svg>
