<svg width="20" height="10" viewBox="0 0 20 10" fill="none" xmlns="http://www.w3.org/2000/svg">
<path id="Vector" d="M20 0.885797C20.0006 1.0017 19.9796 1.1166 19.9381 1.2239C19.8967 1.3312 19.8356 1.4288 19.7584 1.51109L12.9512 8.70632C12.5642 9.1164 12.1045 9.44175 11.5984 9.66374C11.0922 9.88573 10.5497 10 10.0017 10C9.45373 10 8.91115 9.88573 8.40502 9.66374C7.8989 9.44175 7.43918 9.1164 7.0522 8.70632L0.245034 1.51109C0.167349 1.42897 0.105725 1.33149 0.0636824 1.2242C0.0216393 1.11691 8.18549e-10 1.00192 0 0.885797C-8.1855e-10 0.76967 0.0216393 0.654681 0.0636824 0.547394C0.105725 0.440106 0.167349 0.342622 0.245034 0.260508C0.32272 0.178394 0.414946 0.113256 0.516447 0.0688162C0.617948 0.0243769 0.726736 0.00150394 0.8366 0.00150394C0.946464 0.00150394 1.05525 0.0243769 1.15675 0.0688162C1.25825 0.113256 1.35048 0.178394 1.42817 0.260508L8.23533 7.45574C8.704 7.95052 9.33931 8.22842 10.0017 8.22842C10.6641 8.22842 11.2994 7.95052 11.7681 7.45574L18.5752 0.260508C18.6527 0.177962 18.7448 0.112443 18.8464 0.0677309C18.9479 0.0230198 19.0568 0 19.1668 0C19.2768 0 19.3857 0.0230198 19.4872 0.0677309C19.5888 0.112443 19.6809 0.177962 19.7584 0.260508C19.8356 0.3428 19.8967 0.440392 19.9381 0.547694C19.9796 0.654995 20.0006 0.769892 20 0.885797Z" fill="#006A78"/>
</svg>
