<svg width="59" height="60" viewBox="0 0 59 60" fill="none" xmlns="http://www.w3.org/2000/svg">
<g id=".">
<g id="Group">
<path id="Vector" d="M46.0029 23.7519C37.1974 35.5666 25.1145 35.0997 11.1037 27.4085C10.852 26.2059 10.7253 24.9805 10.7257 23.7519C10.7257 14.0088 18.625 6.10938 28.3682 6.10938C38.1114 6.10938 46.0029 14.0088 46.0029 23.7519Z" fill="#008699"/>
<path id="Vector_2" d="M38.4488 24.0007L35.5915 27.0315L28.5033 28.3605C27.6731 28.5162 26.816 28.4411 26.0254 28.1435C25.2349 27.8459 24.5411 27.3371 24.0196 26.6726L23.7181 26.2884L12.2726 34.7598L18.5308 42.7354L23.6342 48.8498L26.9759 53.1085C27.7178 54.0539 29.0855 54.2189 30.031 53.4771C30.9764 52.7352 31.1414 51.3675 30.3996 50.4221L27.058 46.1634L27.5166 46.7479L30.8583 51.0065C31.6002 51.9519 32.9679 52.1169 33.9133 51.3751C34.8586 50.6332 35.0237 49.2655 34.2819 48.3201L30.9402 44.0614L32.1196 45.5645L34.9698 49.197C35.7117 50.1423 37.0794 50.3074 38.0249 49.5656C38.9703 48.8237 39.1353 47.456 38.3936 46.5105L34.3639 41.3751L35.5434 42.8781L38.3936 46.5105C39.1354 47.4559 40.5032 47.6209 41.4485 46.8791C42.3939 46.1373 42.5589 44.7695 41.8172 43.8242L33.9085 33.588L31.553 33.6781L38.4488 24.0007Z" fill="#F1DB9F"/>
<path id="Vector_3" d="M23.4799 25.6187L11.662 34.8919C10.6826 35.6604 9.26558 35.4895 8.49708 34.51L7.02116 32.6291C6.25266 31.6498 6.42356 30.2327 7.40305 29.4642L19.2209 20.1911C20.2003 19.4226 21.6173 19.5935 22.3858 20.573L23.8617 22.4539C24.6302 23.4333 24.4593 24.8502 23.4799 25.6187Z" fill="#FF6C58"/>
<g id="Group_2">
<path id="Vector_4" d="M26.5225 51.5207L25.0435 52.7177C24.2874 53.3296 23.1784 53.2128 22.5665 52.4567C21.9546 51.7007 22.0715 50.5916 22.8275 49.9797L24.3066 48.7827C25.0626 48.1708 26.1716 48.2876 26.7835 49.0437C27.3955 49.7997 27.2787 50.9087 26.5225 51.5207ZM24.0248 48.4947L20.7288 51.1623C19.9455 51.7962 18.7966 51.6751 18.1628 50.8918C17.5289 50.1086 17.6501 48.9597 18.4333 48.3259L21.7294 45.6583C22.5126 45.0244 23.6615 45.1455 24.2953 45.9288C24.9292 46.712 24.8081 47.8608 24.0248 48.4947ZM19.2662 42.4525L15.9702 45.1201C15.1869 45.754 14.038 45.6329 13.4042 44.8496C12.7703 44.0664 12.8914 42.9175 13.6747 42.2837L16.9707 39.6161C17.754 38.9822 18.9029 39.1033 19.5367 39.8866C20.1706 40.6698 20.0495 41.8186 19.2662 42.4525ZM21.7419 45.367L16.9765 49.2238C16.1933 49.8577 15.0444 49.7366 14.4106 48.9534C13.7767 48.1701 13.8978 47.0212 14.681 46.3874L19.4464 42.5307C20.2297 41.8967 21.3786 42.0179 22.0124 42.8011C22.6462 43.5842 22.5252 44.7331 21.7419 45.367ZM38.4487 24.0007L35.5915 27.0315L32.1354 27.782L23.6808 35.1151C23.123 35.623 23.0824 36.487 23.5904 37.0448C24.475 38.0165 25.98 38.0871 26.9517 37.2023L31.553 33.678L39.879 40.926L46.5087 35.4286L38.4487 24.0007Z" fill="white"/>
</g>
<path id="Vector_5" d="M43.0339 19.0147L52.2334 30.887C52.9964 31.8716 52.8166 33.2883 51.8321 34.0513L49.9441 35.5143C48.9595 36.2772 47.5428 36.0975 46.7799 35.1129L37.5803 23.2405C36.8174 22.256 36.9971 20.8393 37.9817 20.0763L39.8697 18.6133C40.8543 17.8503 42.271 18.0301 43.0339 19.0147Z" fill="#12005C"/>
<path id="Vector_6" d="M46.6056 22.4991C45.9711 12.9165 37.9812 5.31323 28.2451 5.31323C18.0919 5.31323 9.83177 13.573 9.8312 23.726L9.83074 23.728L9.83131 23.7306C9.83154 24.5926 9.90149 25.4546 10.0209 26.3084L6.80376 28.8326C5.49101 29.8624 5.26123 31.7684 6.29108 33.0807L7.76723 34.9618C8.71561 36.1702 10.4691 36.518 11.8396 35.5896L15.229 39.9085L13.0658 41.659C11.9535 42.56 11.781 44.1977 12.6816 45.3104C12.9738 45.6713 13.3471 45.9211 13.7514 46.0796C13.3483 46.5382 13.1208 47.1247 13.1092 47.7351C13.0976 48.3456 13.3027 48.9403 13.6881 49.4139C14.4388 50.3413 15.7631 50.6672 16.8955 50.0822C16.9601 50.5431 17.1395 50.9814 17.4398 51.3522C18.3353 52.4596 19.9672 52.6467 21.0909 51.7372L21.2953 51.5718C21.3415 52.0484 21.5203 52.5174 21.8435 52.917C22.722 54.0027 24.3186 54.1713 25.406 53.2929L25.7917 52.9807L26.246 53.5597C27.2546 54.8444 29.1107 55.0579 30.3841 54.0599C30.9193 53.6395 31.2851 53.0617 31.4357 52.4078C32.3523 52.7429 33.4294 52.6141 34.2664 51.9573C34.7527 51.5761 35.0996 51.0631 35.2717 50.4823C36.2418 50.951 37.453 50.8734 38.3777 50.1478C39.0325 49.634 39.434 48.8838 39.4976 48.0497C40.269 48.1827 41.1188 47.9975 41.8017 47.4614C43.0866 46.4532 43.3023 44.5988 42.3046 43.3278L40.6385 41.1713L46.6859 36.1567C47.8274 36.9718 49.2704 36.8917 50.293 36.0994L52.1812 34.6363C53.5003 33.6141 53.7417 31.7088 52.7198 30.3897L46.6056 22.4991ZM44.6899 20.0268L43.5207 18.5178C42.5052 17.2067 40.607 16.944 39.2744 17.9792L37.3858 19.4422C37.2483 19.5487 37.1271 19.6697 37.0119 19.7952C36.8199 18.0572 36.5112 16.4211 36.0926 14.9309C37.4742 13.9668 38.6867 12.752 39.6444 11.3222C42.1253 13.608 43.925 16.6215 44.6899 20.0268ZM21.7649 15.7749C23.5074 16.71 25.4501 17.2743 27.4707 17.389V22.9565H24.8617C24.7544 22.5975 24.5838 22.2568 24.3454 21.9531L22.8696 20.072C22.4302 19.5117 21.8167 19.1456 21.1292 18.9972C21.2896 17.8667 21.5014 16.7857 21.7649 15.7749ZM35.5891 21.0678C35.6368 21.6873 35.6616 22.3207 35.6754 22.9564H29.0135V17.389C31.0348 17.2741 32.9794 16.7085 34.7237 15.7714C35.143 17.3858 35.4432 19.1683 35.5891 21.0678ZM29.0135 15.8462V7.5043C31.1402 8.00395 33.0508 10.5465 34.2783 14.2615C32.684 15.1728 30.8858 15.7263 29.0135 15.8462ZM31.7067 7.22578C34.1581 7.74008 36.4631 8.797 38.4524 10.3189C37.6864 11.4994 36.7213 12.538 35.6001 13.3884C34.6293 10.6458 33.2802 8.51076 31.7067 7.22578ZM27.4707 7.50925V15.8461C25.6003 15.7265 23.8057 15.1744 22.2138 14.266C23.4421 10.558 25.3505 8.01536 27.4707 7.50925ZM20.8954 13.3965C19.7675 12.5435 18.797 11.5005 18.0274 10.3142C19.9953 8.8114 22.3006 7.7297 24.8099 7.20849C23.2275 8.49289 21.8723 10.6418 20.8954 13.3965ZM24.8992 24.4994H27.4706V27.635C25.2977 27.6038 24.352 25.9279 24.2292 25.8224C24.563 25.4463 24.7859 24.9927 24.8992 24.4994ZM29.0135 24.4994H36.772L35.0793 26.2946L29.0133 27.4329L29.0135 24.4994ZM16.8345 11.3135C17.7963 12.752 19.0146 13.9738 20.4038 14.9413C20.0438 16.22 19.7612 17.6011 19.5662 19.0652C18.6321 19.3669 18.6474 19.6198 14.292 22.9565H11.3935C11.6014 18.3593 13.657 14.2365 16.8345 11.3135ZM11.3945 24.4994H12.326L11.4437 25.1917C11.4235 24.9612 11.4056 24.7305 11.3945 24.4994ZM8.981 34.0096L7.50485 32.1285C6.99862 31.4827 7.1119 30.5517 7.75606 30.047L19.5741 20.7734C20.207 20.2762 21.1411 20.3689 21.656 21.0243L23.1318 22.9054C23.6371 23.5501 23.5263 24.4811 22.8809 24.9868L11.0628 34.2604C10.423 34.7633 9.49056 34.6581 8.981 34.0096ZM14.0367 42.8583L17.333 40.1908C17.7839 39.8262 18.4483 39.8961 18.8141 40.3467C19.179 40.7979 19.1094 41.4632 18.6581 41.8285L15.3619 44.496C14.9106 44.8614 14.2465 44.7906 13.8808 44.3401C13.5154 43.8889 13.5854 43.2237 14.0367 42.8583ZM14.8872 48.4436C14.8001 48.3362 14.7351 48.2126 14.6958 48.08C14.6565 47.9474 14.6437 47.8083 14.6582 47.6707C14.6727 47.5332 14.7141 47.3998 14.7802 47.2783C14.8462 47.1568 14.9356 47.0495 15.0431 46.9625L19.8084 43.1054C20.2604 42.74 20.9238 42.8096 21.2895 43.2613C21.3766 43.3688 21.4417 43.4923 21.481 43.6249C21.5202 43.7575 21.533 43.8966 21.5185 44.0342C21.5041 44.1717 21.4626 44.3051 21.3966 44.4266C21.3305 44.5481 21.2412 44.6554 21.1336 44.7424L16.3683 48.5995C15.9178 48.9649 15.2525 48.8941 14.8872 48.4436ZM20.1202 50.5379C19.6767 50.8988 19.0112 50.8412 18.6391 50.382C18.5521 50.2745 18.4871 50.1509 18.4478 50.0183C18.4085 49.8857 18.3958 49.7467 18.4103 49.6091C18.4247 49.4716 18.4662 49.3382 18.5322 49.2167C18.5982 49.0952 18.6875 48.9879 18.795 48.9009L22.0913 46.2333C22.5433 45.8679 23.2067 45.9375 23.5724 46.3892C23.6595 46.4967 23.7246 46.6202 23.7639 46.7529C23.8032 46.8855 23.8159 47.0245 23.8014 47.1621C23.787 47.2996 23.7455 47.433 23.6795 47.5545C23.6134 47.676 23.5241 47.7833 23.4165 47.8703L20.1202 50.5379ZM23.0428 51.9466C22.7021 51.5247 22.7604 50.9017 23.1901 50.5545L24.6685 49.3574C24.8728 49.1925 25.1343 49.1154 25.3954 49.143C25.6565 49.1707 25.896 49.3009 26.0612 49.505C26.4009 49.9241 26.3445 50.5478 25.9139 50.8965L24.4354 52.0935C24.0106 52.4356 23.3864 52.37 23.0428 51.9466ZM40.8496 46.2469C40.2503 46.7194 39.3633 46.6291 38.8774 46.0096L34.8478 40.8741C34.7858 40.7927 34.7084 40.7245 34.6198 40.6734C34.5313 40.6222 34.4335 40.5892 34.332 40.5762C34.2306 40.5632 34.1276 40.5705 34.0291 40.5976C33.9305 40.6248 33.8383 40.6713 33.7578 40.7344C33.6774 40.7975 33.6103 40.876 33.5605 40.9653C33.5106 41.0546 33.479 41.1529 33.4675 41.2545C33.456 41.3561 33.4648 41.4589 33.4934 41.5571C33.522 41.6553 33.5698 41.7468 33.6341 41.8263L37.6638 46.9618C38.1423 47.5729 38.0368 48.4547 37.4257 48.9334C36.8148 49.4133 35.9326 49.3064 35.4538 48.6961L31.4242 43.5606C31.1608 43.2238 30.6761 43.1673 30.3412 43.4294C30.1802 43.5558 30.0761 43.7409 30.0515 43.944C30.027 44.1472 30.0842 44.3517 30.2105 44.5127L33.552 48.7713C33.6663 48.9163 33.7508 49.0825 33.8005 49.2603C33.8502 49.4381 33.8642 49.6239 33.8417 49.8072C33.8201 49.9903 33.7624 50.1673 33.6719 50.3279C33.5814 50.4886 33.4598 50.6296 33.3144 50.7429C32.715 51.2152 31.8281 51.1251 31.3421 50.5056L27.5419 45.6624C27.2789 45.3257 26.7935 45.2691 26.4589 45.5313C26.298 45.6576 26.1938 45.8427 26.1692 46.0458C26.1446 46.2489 26.2017 46.4535 26.3278 46.6146L29.6696 50.8732C29.7839 51.0182 29.8684 51.1843 29.9181 51.3621C29.9679 51.5399 29.9819 51.7258 29.9593 51.9091C29.9376 52.0922 29.8798 52.2693 29.7893 52.43C29.6988 52.5907 29.5774 52.7319 29.432 52.8454C28.8229 53.3231 27.9381 53.216 27.4598 52.6074L26.9828 51.9995C27.4471 51.5805 27.7441 51.0184 27.8105 50.3926C27.8814 49.719 27.6858 49.0592 27.2602 48.5341C26.7582 47.9136 26.0205 47.604 25.2777 47.6071C25.4645 46.7517 25.2406 45.9979 24.7718 45.4189C24.3151 44.8542 23.668 44.5345 22.9961 44.4716C23.1773 43.6307 22.9643 42.8792 22.4888 42.291C21.9984 41.6848 21.288 41.3688 20.5633 41.3425C20.6514 40.6626 20.4775 39.95 20.0133 39.3764C19.1313 38.287 17.5442 38.1061 16.4337 38.945L13.2464 34.8827L23.456 27.3259C25.8891 30.1402 29.1784 28.9002 29.5065 28.9094L23.0383 34.5203C22.1654 35.3153 22.1012 36.666 22.897 37.539C24.101 38.8631 26.1181 38.8724 27.2977 37.7898L31.3986 34.6491L38.273 40.6328L41.0872 44.2754C41.5656 44.8851 41.4608 45.7676 40.8496 46.2469ZM39.7682 39.8886L31.9364 33.0716C31.8023 32.9547 31.6319 32.8877 31.4541 32.8821C31.2763 32.8765 31.102 32.9325 30.9608 33.0407L26.3093 36.607C25.6066 37.2472 24.598 37.116 24.0375 36.5C23.8097 36.2504 23.8468 35.8703 24.0631 35.6736L32.3684 28.4693L35.6323 27.7604C35.7845 27.7273 35.9231 27.6487 36.0297 27.5351L38.1149 25.3234L40.5377 28.4503L45.3441 35.2652L39.7682 39.8886ZM51.2364 33.4174L49.3485 34.8796C48.701 35.3821 47.768 35.2623 47.2667 34.6159L38.0673 22.7432C37.5644 22.0946 37.6831 21.1646 38.331 20.661L40.2195 19.1979C40.8699 18.694 41.8003 18.8164 42.301 19.4624L51.5005 31.3343C52.0018 31.9816 51.8831 32.9157 51.2364 33.4174Z" fill="#000125"/>
</g>
</g>
</svg>
